<svg xmlns="http://www.w3.org/2000/svg" viewBox="0 0 592.5 247.57"><path d="M124.77,2.39S242.85,1.18,242.85,130.61H202.26s12.28-92.25-77.49-92.25Z" transform="translate(-1.78 -2.39)" style="fill:#a7a9ac"/><path d="M119.85,248.38S1.78,259.74,1.78,130.3H42.37s-12.28,82.1,77.48,82.1Z" transform="translate(-1.78 -2.39)" style="fill:#a7a9ac"/><polygon points="0.31 100.24 40.9 66.42 122.07 66.42 157.12 99.63 157.12 168.5 85.17 168.5 85.17 99.63 67.34 81.18 43.34 100.55 0.31 100.24" style="fill:#ed1c24"/><path d="M200.45,206H180.74v-4.54c0-2.11-.26-3.46-.76-4a3.18,3.18,0,0,0-2.52-.87,3.58,3.58,0,0,0-2.89,1.16,5.33,5.33,0,0,0-1,3.53,7.76,7.76,0,0,0,1.12,4.58q1.08,1.53,6,3.74Q194.83,216,198.51,220t3.67,13c0,4.35-.68,7.57-2,9.63s-4,3.8-7.89,5.2A40.53,40.53,0,0,1,178.63,250a39.06,39.06,0,0,1-14.54-2.41q-6-2.41-7.9-6.16t-1.86-10.6v-4h19.72v7.41c0,2.29.27,3.76.83,4.41a3.7,3.7,0,0,0,2.94,1,3.86,3.86,0,0,0,3.15-1.25,5.66,5.66,0,0,0,1-3.69q0-5.4-2-7T170.13,222a102.26,102.26,0,0,1-10.45-5.72,13.65,13.65,0,0,1-4.24-4.91,16.75,16.75,0,0,1-1.69-8q0-7,2.4-10.28t7.73-5.08a40,40,0,0,1,12.9-1.83,43.4,43.4,0,0,1,14.08,2q5.8,2,7.7,5.05t1.89,10.35Z" transform="translate(-1.78 -2.39)" style="fill:#0072bc"/><path d="M268.81,214.09H247.6v-10.6c0-3.09-.23-5-.68-5.78s-1.46-1.14-3-1.14c-1.75,0-2.86.46-3.33,1.39s-.71,2.95-.71,6V232.4q0,4.46.71,5.82c.47.9,1.53,1.36,3.18,1.36s2.62-.46,3.1-1.37.74-3,.74-6.4v-7.69h21.21v2.39q0,9.51-1.79,13.48t-7.91,7q-6.12,3-15.1,3-9.31,0-15.37-2.53t-8-7q-2-4.49-2-13.47V209.06a60.23,60.23,0,0,1,.6-9.92,12.31,12.31,0,0,1,3.6-6.37,20.29,20.29,0,0,1,8.32-4.82,39,39,0,0,1,12.23-1.76q9.38,0,15.47,2.71t8,6.77q1.91,4.05,1.91,12.62Z" transform="translate(-1.78 -2.39)" style="fill:#0072bc"/><path d="M335.54,187.46v61.22H314.32V223H308v25.71H286.76V187.46H308v21.91h6.34V187.46Z" transform="translate(-1.78 -2.39)" style="fill:#0072bc"/><path d="M391.09,187.46l12.19,61.22H381.57l-1.13-11h-7.68l-1.16,11h-22l10.86-61.22Zm-11.16,39.43q-1.57-10.5-3.29-25.83-3.22,17.63-4,25.83Z" transform="translate(-1.78 -2.39)" style="fill:#0072bc"/><path d="M465.44,187.46v40.91a52.75,52.75,0,0,1-.61,9.77,12.06,12.06,0,0,1-3.58,5.78,18.85,18.85,0,0,1-7.83,4.5A38.43,38.43,0,0,1,442,250,41.84,41.84,0,0,1,429,248.14a19.85,19.85,0,0,1-8.37-4.73,11.43,11.43,0,0,1-3.27-6.14,111.15,111.15,0,0,1-.51-13.59V187.46h21.22v45.88c0,2.67.19,4.38.58,5.12a2.41,2.41,0,0,0,2.35,1.12c1.35,0,2.21-.41,2.6-1.23s.58-2.76.58-5.8V187.46Z" transform="translate(-1.78 -2.39)" style="fill:#0072bc"/><path d="M484.07,187.46h15.86q15.38,0,20.79,1.06A17.6,17.6,0,0,1,529,192a10.2,10.2,0,0,1,3.53,5.38q.71,3,.71,11.67v21.44q0,8.25-1,11a8.4,8.4,0,0,1-3.6,4.35,17.59,17.59,0,0,1-6.35,2.19,75.55,75.55,0,0,1-11.38.62H484.07ZM505.28,198v40.24q4.58,0,5.63-1.38t1.06-7.5V205.55a24.42,24.42,0,0,0-.35-5.33A2.69,2.69,0,0,0,510,198.5,13.44,13.44,0,0,0,505.28,198Z" transform="translate(-1.78 -2.39)" style="fill:#0072bc"/><path d="M594.28,187.46v12.22H581.59v49H560.38v-49H547.81V187.46Z" transform="translate(-1.78 -2.39)" style="fill:#0072bc"/><path d="M243.94,142H254a35.41,35.41,0,0,1,7.24.55,7.42,7.42,0,0,1,4,2.26q1.51,1.69,1.51,5.48c0,1.7-.35,2.89-1.07,3.56s-2.12,1.19-4.21,1.55q3.48.6,4.73,2a6.16,6.16,0,0,1,1.25,4.23v2.7a8.39,8.39,0,0,1-.9,4.39,4.59,4.59,0,0,1-2.87,1.94,38.67,38.67,0,0,1-8.07.53H243.94ZM254,147v6.46l1,0c1,0,1.64-.18,1.91-.55s.42-1.4.42-3.13a4,4,0,0,0-.34-1.91,1.5,1.5,0,0,0-.89-.69A10.81,10.81,0,0,0,254,147Zm0,11v8.13a5.44,5.44,0,0,0,2.75-.5c.4-.3.6-1,.6-2.21v-2.71c0-1.24-.18-2-.54-2.26A6.22,6.22,0,0,0,254,158.05Z" transform="translate(-1.78 -2.39)" style="fill:#808285"/><path d="M287.34,156.55h-9.11V155a8.72,8.72,0,0,1,.85-4.27,7.12,7.12,0,0,1,3.43-2.66,16.48,16.48,0,0,1,6.69-1.15q4.92,0,7.43,1.3a5.32,5.32,0,0,1,3,3.21,37.46,37.46,0,0,1,.51,7.82v12h-9.4v-2.14a5.52,5.52,0,0,1-2.31,1.91,8.19,8.19,0,0,1-3.36.63,10.25,10.25,0,0,1-4.7-1.07q-2.14-1.07-2.14-4.68v-2c0-1.79.38-3,1.13-3.65S282,158.84,285,158q4.8-1.41,5.14-1.89a4,4,0,0,0,.33-2,5.14,5.14,0,0,0-.37-2.45,1.41,1.41,0,0,0-1.26-.57c-.66,0-1.07.16-1.24.48a7.37,7.37,0,0,0-.24,2.48Zm3.11,3.28c-1.57.86-2.48,1.57-2.73,2.15a6.41,6.41,0,0,0-.38,2.48,5.42,5.42,0,0,0,.33,2.39,1.4,1.4,0,0,0,1.3.54q.93,0,1.2-.42a5.08,5.08,0,0,0,.28-2.22Z" transform="translate(-1.78 -2.39)" style="fill:#808285"/><path d="M333.61,147.27V171.2h-9.86l.17-2a6.35,6.35,0,0,1-2.5,1.8,9.08,9.08,0,0,1-3.42.6,10,10,0,0,1-3.65-.57,4.75,4.75,0,0,1-2.14-1.53,4.65,4.65,0,0,1-.86-2,32.11,32.11,0,0,1-.17-4.12V147.27h9.69v16.28a12.41,12.41,0,0,0,.23,3.32c.16.35.58.52,1.28.52s1.19-.18,1.33-.54a15.21,15.21,0,0,0,.21-3.48v-16.1Z" transform="translate(-1.78 -2.39)" style="fill:#808285"/><path d="M366.89,159.67H354.32v5.17a4.35,4.35,0,0,0,.31,2.08,1.33,1.33,0,0,0,1.2.47,1.56,1.56,0,0,0,1.47-.62,5.31,5.31,0,0,0,.37-2.4v-3.15h9.22V163a11.88,11.88,0,0,1-.37,3.4,6.54,6.54,0,0,1-1.74,2.53,8.57,8.57,0,0,1-3.47,2,17.51,17.51,0,0,1-5.27.67,20.19,20.19,0,0,1-5.43-.66,9.43,9.43,0,0,1-3.66-1.83,6.3,6.3,0,0,1-1.81-2.55,12.49,12.49,0,0,1-.5-4.06v-7a9.32,9.32,0,0,1,1.12-4.94,7.16,7.16,0,0,1,3.7-2.77,19.41,19.41,0,0,1,12.64.2,7.43,7.43,0,0,1,3.72,3.08,11.21,11.21,0,0,1,1.07,5.39Zm-9.69-3.92V154a6.83,6.83,0,0,0-.26-2.39,1.11,1.11,0,0,0-1.1-.54c-.69,0-1.11.15-1.27.46a6.82,6.82,0,0,0-.25,2.47v1.74Z" transform="translate(-1.78 -2.39)" style="fill:#808285"/><path d="M387.92,142V171.2h-10V142Z" transform="translate(-1.78 -2.39)" style="fill:#808285"/><path d="M421.26,159.67H408.69v5.17a4.35,4.35,0,0,0,.31,2.08,1.31,1.31,0,0,0,1.19.47,1.54,1.54,0,0,0,1.47-.62,5.17,5.17,0,0,0,.37-2.4v-3.15h9.23V163a12.25,12.25,0,0,1-.37,3.4,6.47,6.47,0,0,1-1.75,2.53,8.53,8.53,0,0,1-3.46,2,17.55,17.55,0,0,1-5.27.67,20.19,20.19,0,0,1-5.43-.66,9.36,9.36,0,0,1-3.66-1.83,6.2,6.2,0,0,1-1.81-2.55,12.45,12.45,0,0,1-.51-4.06v-7a9.31,9.31,0,0,1,1.13-4.94,7.12,7.12,0,0,1,3.7-2.77,16.78,16.78,0,0,1,5.9-1,17,17,0,0,1,6.74,1.16,7.43,7.43,0,0,1,3.72,3.08,11.21,11.21,0,0,1,1.07,5.39Zm-9.69-3.92V154a6.51,6.51,0,0,0-.27-2.39,1.1,1.1,0,0,0-1.1-.54c-.68,0-1.11.15-1.27.46a7.17,7.17,0,0,0-.24,2.47v1.74Z" transform="translate(-1.78 -2.39)" style="fill:#808285"/><path d="M441.88,147.27l-.17,2.28a7.24,7.24,0,0,1,2.69-2,8.9,8.9,0,0,1,3.56-.67,7.53,7.53,0,0,1,6.12,2.68,8.23,8.23,0,0,1,2.77-2,9.45,9.45,0,0,1,7.52.23,4.23,4.23,0,0,1,2.08,2.21,14.24,14.24,0,0,1,.45,4.24v17h-9.39V155.6a14.9,14.9,0,0,0-.28-3.79,1.23,1.23,0,0,0-1.3-.73,1.3,1.3,0,0,0-1.35.72,13.68,13.68,0,0,0-.3,3.8v15.6h-9.4V156a21.15,21.15,0,0,0-.23-4.22c-.15-.47-.58-.7-1.27-.7a1.67,1.67,0,0,0-1.11.37,1.23,1.23,0,0,0-.51.9c0,.35-.05,1.11-.05,2.26V171.2h-9.4V147.27Z" transform="translate(-1.78 -2.39)" style="fill:#808285"/><path d="M500.08,159.67H487.51v5.17a4.35,4.35,0,0,0,.31,2.08,1.3,1.3,0,0,0,1.19.47,1.56,1.56,0,0,0,1.47-.62,5.17,5.17,0,0,0,.37-2.4v-3.15h9.23V163a11.81,11.81,0,0,1-.38,3.4,6.32,6.32,0,0,1-1.74,2.53,8.57,8.57,0,0,1-3.47,2,17.46,17.46,0,0,1-5.27.67,20.16,20.16,0,0,1-5.42-.66,9.36,9.36,0,0,1-3.66-1.83,6.2,6.2,0,0,1-1.81-2.55,12.45,12.45,0,0,1-.51-4.06v-7A9.31,9.31,0,0,1,479,150.6a7.08,7.08,0,0,1,3.7-2.77,16.78,16.78,0,0,1,5.9-1,17,17,0,0,1,6.74,1.16,7.52,7.52,0,0,1,3.72,3.08,11.21,11.21,0,0,1,1.07,5.39Zm-9.69-3.92V154a6.51,6.51,0,0,0-.27-2.39,1.11,1.11,0,0,0-1.1-.54c-.68,0-1.11.15-1.27.46a7.17,7.17,0,0,0-.24,2.47v1.74Z" transform="translate(-1.78 -2.39)" style="fill:#808285"/><path d="M521,147.27l-.17,2.2a6.6,6.6,0,0,1,2.58-1.95,9,9,0,0,1,3.52-.65,8.33,8.33,0,0,1,4.08.88,4.08,4.08,0,0,1,2,2.23,15.11,15.11,0,0,1,.46,4.47V171.2h-9.69V154.63a12,12,0,0,0-.21-3c-.15-.36-.55-.54-1.21-.54s-1.13.21-1.31.62a11.72,11.72,0,0,0-.26,3.33V171.2h-9.69V147.27Z" transform="translate(-1.78 -2.39)" style="fill:#808285"/><path d="M554.93,144.1v3.75h2.65v3.8h-2.65v12.79c0,1.57.11,2.45.33,2.63a7,7,0,0,0,2.73.27v3.86h-3.91a36.6,36.6,0,0,1-4.73-.21,5.78,5.78,0,0,1-2.5-1,3.16,3.16,0,0,1-1.34-1.71,22.76,22.76,0,0,1-.26-4.53V151.65h-2.08v-3.8h2.08V144.1Z" transform="translate(-1.78 -2.39)" style="fill:#808285"/><path d="M589.55,159.67H577v5.17a4.48,4.48,0,0,0,.31,2.08,1.33,1.33,0,0,0,1.2.47,1.56,1.56,0,0,0,1.47-.62,5.31,5.31,0,0,0,.37-2.4v-3.15h9.22V163a11.88,11.88,0,0,1-.37,3.4,6.54,6.54,0,0,1-1.74,2.53,8.57,8.57,0,0,1-3.47,2,17.51,17.51,0,0,1-5.27.67,20.06,20.06,0,0,1-5.42-.66,9.48,9.48,0,0,1-3.67-1.83,6.3,6.3,0,0,1-1.81-2.55,12.78,12.78,0,0,1-.5-4.06v-7a9.22,9.22,0,0,1,1.13-4.94,7.09,7.09,0,0,1,3.69-2.77,19.41,19.41,0,0,1,12.64.2,7.43,7.43,0,0,1,3.72,3.08,11.09,11.09,0,0,1,1.07,5.39Zm-9.68-3.92V154a6.51,6.51,0,0,0-.27-2.39,1.11,1.11,0,0,0-1.1-.54c-.69,0-1.11.15-1.27.46A7.07,7.07,0,0,0,577,154v1.74Z" transform="translate(-1.78 -2.39)" style="fill:#808285"/></svg>