<?xml version="1.0" encoding="utf-8"?>
<!-- Generator: Adobe Illustrator 25.1.0, SVG Export Plug-In . SVG Version: 6.00 Build 0)  -->
<svg version="1.1" xmlns="http://www.w3.org/2000/svg" xmlns:xlink="http://www.w3.org/1999/xlink" x="0px" y="0px"
	 viewBox="0 0 540.3 230" style="enable-background:new 0 0 540.3 230;" xml:space="preserve">
<style type="text/css">
	.st0{fill:#C6C6C5;}
	.st1{display:none;}
	.st2{display:inline;fill:#FFFFFF;}
	.st3{fill:#ED1C24;}
	.st4{fill:#FFFFFF;}
</style>
<g id="Ebene_1">
</g>
<g id="Ebene_2">
	<path class="st0" d="M111.3,0c0,0,106.9-1.1,106.9,116h-36.7c0,0,11.1-83.5-70.1-83.5V0z"/>
	<path class="st0" d="M106.9,222.6c0,0-106.9,10.3-106.9-106.9h36.7c0,0-11.1,74.3,70.1,74.3V222.6z"/>
</g>
<g id="Ebene_1_Kopie">
</g>
<g id="Ebene_2_Kopie">
</g>
<g id="Ebene_3" class="st1">
	<rect x="273.7" y="236.3" class="st2" width="151.8" height="150.3"/>
</g>
<g id="Ebene_4">
	<polygon class="st3" points="0.3,90.7 37,60.1 110.5,60.1 142.2,90.2 142.2,152.5 77.1,152.5 77.1,90.2 60.9,73.5 39.2,91 	"/>
</g>
<g id="Ebene_5">
	<g>
		<path class="st4" d="M179.8,184.3h-17.8v-4.1c0-1.9-0.2-3.1-0.7-3.7c-0.5-0.5-1.2-0.8-2.3-0.8c-1.2,0-2,0.4-2.6,1.1
			c-0.6,0.7-0.9,1.8-0.9,3.2c0,1.8,0.3,3.2,1,4.1c0.6,0.9,2.5,2.1,5.4,3.4c8.5,3.8,13.9,7,16.1,9.4c2.2,2.4,3.3,6.4,3.3,11.8
			c0,3.9-0.6,6.9-1.8,8.7c-1.2,1.9-3.6,3.4-7.1,4.7c-3.5,1.3-7.6,1.9-12.3,1.9c-5.1,0-9.5-0.7-13.2-2.2c-3.6-1.5-6-3.3-7.1-5.6
			c-1.1-2.3-1.7-5.5-1.7-9.6v-3.6h17.8v6.7c0,2.1,0.2,3.4,0.8,4c0.5,0.6,1.4,0.9,2.7,0.9c1.3,0,2.2-0.4,2.8-1.1
			c0.6-0.8,0.9-1.9,0.9-3.3c0-3.3-0.6-5.4-1.8-6.4c-1.2-1-4.2-2.7-9-5c-4.8-2.4-7.9-4.1-9.5-5.2c-1.5-1.1-2.8-2.6-3.8-4.4
			c-1-1.9-1.5-4.3-1.5-7.2c0-4.2,0.7-7.3,2.2-9.3c1.4-2,3.8-3.5,7-4.6c3.2-1.1,7.1-1.7,11.7-1.7c5,0,9.2,0.6,12.7,1.8
			c3.5,1.2,5.8,2.7,7,4.6c1.1,1.8,1.7,5,1.7,9.4V184.3z"/>
		<path class="st4" d="M241.7,191.6h-19.2V182c0-2.8-0.2-4.5-0.6-5.2c-0.4-0.7-1.3-1-2.7-1c-1.6,0-2.6,0.4-3,1.3
			c-0.4,0.8-0.6,2.7-0.6,5.5v25.7c0,2.7,0.2,4.4,0.6,5.3c0.4,0.8,1.4,1.2,2.9,1.2c1.4,0,2.4-0.4,2.8-1.2c0.4-0.8,0.7-2.8,0.7-5.8v-7
			h19.2v2.2c0,5.7-0.5,9.8-1.6,12.2c-1.1,2.4-3.5,4.5-7.2,6.3c-3.7,1.8-8.2,2.7-13.7,2.7c-5.6,0-10.3-0.8-13.9-2.3
			c-3.7-1.5-6.1-3.6-7.3-6.3c-1.2-2.7-1.8-6.8-1.8-12.2V187c0-4,0.2-7,0.5-9s1.5-3.9,3.3-5.8c1.8-1.8,4.3-3.3,7.5-4.4
			c3.2-1.1,6.9-1.6,11.1-1.6c5.7,0,10.3,0.8,14,2.5c3.7,1.6,6.1,3.7,7.3,6.1c1.2,2.4,1.7,6.3,1.7,11.4V191.6z"/>
		<path class="st4" d="M302,167.5v55.4h-19.2v-23.3h-5.7v23.3h-19.2v-55.4h19.2v19.8h5.7v-19.8H302z"/>
		<path class="st4" d="M352.3,167.5l11,55.4h-19.6l-1-9.9h-6.9l-1.1,9.9h-19.9l9.8-55.4H352.3z M342.2,203.2
			c-0.9-6.3-1.9-14.1-3-23.4c-1.9,10.6-3.2,18.4-3.7,23.4H342.2z"/>
		<path class="st4" d="M419.6,167.5v37c0,4.2-0.2,7.1-0.5,8.8c-0.4,1.7-1.4,3.4-3.2,5.2c-1.8,1.8-4.2,3.1-7.1,4.1
			c-2.9,0.9-6.4,1.4-10.4,1.4c-4.4,0-8.3-0.5-11.7-1.6c-3.4-1.1-5.9-2.5-7.6-4.3c-1.7-1.8-2.7-3.6-3-5.6c-0.3-1.9-0.5-6.1-0.5-12.3
			v-32.8h19.2V209c0,2.4,0.2,4,0.5,4.6c0.4,0.7,1.1,1,2.1,1c1.2,0,2-0.4,2.4-1.1c0.4-0.7,0.5-2.5,0.5-5.3v-40.8H419.6z"/>
		<path class="st4" d="M436.4,167.5h14.4c9.3,0,15.5,0.3,18.8,1c3.3,0.6,5.8,1.7,7.5,3.1c1.7,1.5,2.8,3.1,3.2,4.9
			c0.4,1.8,0.6,5.3,0.6,10.6v19.4c0,5-0.3,8.3-0.9,10c-0.6,1.7-1.7,3-3.3,3.9c-1.6,0.9-3.5,1.6-5.7,2c-2.3,0.4-5.7,0.6-10.3,0.6
			h-24.2V167.5z M455.6,177v36.4c2.8,0,4.5-0.4,5.1-1.2c0.6-0.8,1-3.1,1-6.8v-21.5c0-2.5-0.1-4.1-0.3-4.8c-0.2-0.7-0.7-1.2-1.5-1.6
			C459.2,177.1,457.7,177,455.6,177z"/>
		<path class="st4" d="M536.2,167.5v11.1h-11.5v44.3h-19.2v-44.3h-11.4v-11.1H536.2z"/>
	</g>
</g>
<g id="Ebene_8">
	<g>
		<path class="st0" d="M219.1,126.4h9.1c2.9,0,5.1,0.2,6.6,0.5c1.5,0.3,2.7,1,3.6,2c0.9,1,1.4,2.7,1.4,5c0,1.5-0.3,2.6-1,3.2
			c-0.6,0.6-1.9,1.1-3.8,1.4c2.1,0.4,3.5,1,4.3,1.8c0.7,0.8,1.1,2.1,1.1,3.8v2.4c0,1.8-0.3,3.1-0.8,4c-0.5,0.9-1.4,1.4-2.6,1.8
			c-1.2,0.3-3.6,0.5-7.3,0.5h-10.6V126.4z M228.3,130.9v5.8c0.4,0,0.7,0,0.9,0c0.9,0,1.5-0.2,1.7-0.5c0.2-0.3,0.4-1.3,0.4-2.8
			c0-0.8-0.1-1.4-0.3-1.7c-0.2-0.3-0.5-0.5-0.8-0.6C229.9,131,229.2,130.9,228.3,130.9z M228.3,140.9v7.4c1.3,0,2.1-0.2,2.5-0.5
			c0.4-0.3,0.5-0.9,0.5-2v-2.5c0-1.1-0.2-1.8-0.5-2C230.5,141,229.7,140.9,228.3,140.9z"/>
		<path class="st0" d="M258.4,139.5h-8.2v-1.5c0-1.7,0.3-3,0.8-3.9c0.5-0.9,1.5-1.7,3.1-2.4c1.6-0.7,3.6-1,6.1-1
			c3,0,5.2,0.4,6.7,1.2c1.5,0.8,2.4,1.8,2.7,2.9c0.3,1.1,0.5,3.5,0.5,7.1v10.9h-8.5v-1.9c-0.5,0.8-1.2,1.3-2.1,1.7
			c-0.9,0.4-1.9,0.6-3,0.6c-1.5,0-3-0.3-4.3-1c-1.3-0.6-1.9-2.1-1.9-4.2v-1.8c0-1.6,0.3-2.7,1-3.3c0.7-0.6,2.4-1.3,5.1-2.1
			c2.9-0.8,4.4-1.4,4.6-1.7c0.2-0.3,0.3-0.9,0.3-1.8c0-1.1-0.1-1.9-0.3-2.2c-0.2-0.3-0.6-0.5-1.1-0.5c-0.6,0-1,0.1-1.1,0.4
			s-0.2,1-0.2,2.2V139.5z M261.2,142.5c-1.4,0.8-2.2,1.4-2.5,1.9c-0.2,0.5-0.3,1.3-0.3,2.2c0,1.1,0.1,1.8,0.3,2.2
			c0.2,0.3,0.6,0.5,1.2,0.5c0.6,0,0.9-0.1,1.1-0.4c0.2-0.3,0.3-0.9,0.3-2V142.5z"/>
		<path class="st0" d="M300.3,131.1v21.7h-8.9l0.2-1.8c-0.6,0.7-1.4,1.3-2.3,1.6c-0.9,0.4-1.9,0.5-3.1,0.5c-1.3,0-2.4-0.2-3.3-0.5
			c-0.9-0.3-1.5-0.8-1.9-1.4c-0.4-0.6-0.7-1.2-0.8-1.8c-0.1-0.6-0.2-1.9-0.2-3.7v-14.6h8.8v14.7c0,1.7,0.1,2.7,0.2,3
			c0.1,0.3,0.5,0.5,1.2,0.5c0.7,0,1.1-0.2,1.2-0.5c0.1-0.3,0.2-1.4,0.2-3.1v-14.6H300.3z"/>
		<path class="st0" d="M330.4,142.3H319v4.7c0,1,0.1,1.6,0.3,1.9c0.2,0.3,0.5,0.4,1.1,0.4c0.7,0,1.1-0.2,1.3-0.6
			c0.2-0.4,0.3-1.1,0.3-2.2v-2.8h8.3v1.6c0,1.3-0.1,2.4-0.3,3.1c-0.2,0.7-0.8,1.5-1.6,2.3c-0.8,0.8-1.9,1.4-3.1,1.8
			c-1.3,0.4-2.9,0.6-4.8,0.6c-1.9,0-3.5-0.2-4.9-0.6c-1.4-0.4-2.5-1-3.3-1.7c-0.8-0.7-1.3-1.5-1.6-2.3c-0.3-0.8-0.5-2.1-0.5-3.7
			v-6.3c0-1.9,0.3-3.4,1-4.5c0.7-1.1,1.8-1.9,3.3-2.5c1.5-0.6,3.3-0.9,5.3-0.9c2.5,0,4.5,0.4,6.1,1.1c1.6,0.7,2.7,1.6,3.4,2.8
			c0.6,1.2,1,2.8,1,4.9V142.3z M321.6,138.8v-1.6c0-1.1-0.1-1.8-0.2-2.2c-0.2-0.3-0.5-0.5-1-0.5c-0.6,0-1,0.1-1.1,0.4
			c-0.1,0.3-0.2,1-0.2,2.2v1.6H321.6z"/>
		<path class="st0" d="M349.4,126.4v26.4h-9v-26.4H349.4z"/>
		<path class="st0" d="M379.6,142.3h-11.4v4.7c0,1,0.1,1.6,0.3,1.9c0.2,0.3,0.5,0.4,1.1,0.4c0.7,0,1.1-0.2,1.3-0.6
			c0.2-0.4,0.3-1.1,0.3-2.2v-2.8h8.3v1.6c0,1.3-0.1,2.4-0.3,3.1c-0.2,0.7-0.7,1.5-1.6,2.3c-0.8,0.8-1.9,1.4-3.1,1.8
			c-1.3,0.4-2.9,0.6-4.8,0.6c-1.9,0-3.5-0.2-4.9-0.6c-1.4-0.4-2.5-1-3.3-1.7c-0.8-0.7-1.3-1.5-1.6-2.3c-0.3-0.8-0.5-2.1-0.5-3.7
			v-6.3c0-1.9,0.3-3.4,1-4.5c0.7-1.1,1.8-1.9,3.3-2.5c1.5-0.6,3.3-0.9,5.3-0.9c2.5,0,4.5,0.4,6.1,1.1c1.6,0.7,2.7,1.6,3.4,2.8
			c0.6,1.2,1,2.8,1,4.9V142.3z M370.8,138.8v-1.6c0-1.1-0.1-1.8-0.2-2.2c-0.2-0.3-0.5-0.5-1-0.5c-0.6,0-1,0.1-1.1,0.4
			c-0.1,0.3-0.2,1-0.2,2.2v1.6H370.8z"/>
		<path class="st0" d="M398.3,131.1l-0.2,2.1c0.7-0.8,1.5-1.4,2.4-1.8c0.9-0.4,2-0.6,3.2-0.6c2.3,0,4.2,0.8,5.5,2.4
			c0.7-0.8,1.6-1.4,2.5-1.8c0.9-0.4,2-0.6,3.1-0.6c1.5,0,2.7,0.3,3.7,0.8c1,0.5,1.6,1.2,1.9,2c0.3,0.8,0.4,2.1,0.4,3.8v15.4h-8.5
			v-14.1c0-1.8-0.1-3-0.3-3.4c-0.2-0.4-0.6-0.7-1.2-0.7c-0.6,0-1,0.2-1.2,0.7c-0.2,0.4-0.3,1.6-0.3,3.4v14.1H401V139
			c0-2.1-0.1-3.4-0.2-3.8s-0.5-0.6-1.1-0.6c-0.4,0-0.7,0.1-1,0.3c-0.3,0.2-0.4,0.5-0.5,0.8c0,0.3,0,1,0,2v15h-8.5v-21.7H398.3z"/>
		<path class="st0" d="M450.9,142.3h-11.4v4.7c0,1,0.1,1.6,0.3,1.9c0.2,0.3,0.5,0.4,1.1,0.4c0.7,0,1.1-0.2,1.3-0.6
			c0.2-0.4,0.3-1.1,0.3-2.2v-2.8h8.3v1.6c0,1.3-0.1,2.4-0.3,3.1c-0.2,0.7-0.7,1.5-1.6,2.3c-0.8,0.8-1.9,1.4-3.1,1.8
			c-1.3,0.4-2.9,0.6-4.8,0.6c-1.9,0-3.5-0.2-4.9-0.6c-1.4-0.4-2.5-1-3.3-1.7c-0.8-0.7-1.3-1.5-1.6-2.3c-0.3-0.8-0.5-2.1-0.5-3.7
			v-6.3c0-1.9,0.3-3.4,1-4.5c0.7-1.1,1.8-1.9,3.3-2.5c1.5-0.6,3.3-0.9,5.3-0.9c2.5,0,4.5,0.4,6.1,1.1c1.6,0.7,2.7,1.6,3.4,2.8
			c0.6,1.2,1,2.8,1,4.9V142.3z M442.2,138.8v-1.6c0-1.1-0.1-1.8-0.2-2.2c-0.2-0.3-0.5-0.5-1-0.5c-0.6,0-1,0.1-1.1,0.4
			c-0.1,0.3-0.2,1-0.2,2.2v1.6H442.2z"/>
		<path class="st0" d="M469.9,131.1l-0.2,2c0.6-0.8,1.4-1.4,2.3-1.8s2-0.6,3.2-0.6c1.5,0,2.7,0.3,3.7,0.8c1,0.5,1.6,1.2,1.8,2
			c0.3,0.8,0.4,2.2,0.4,4v15.2h-8.8v-15c0-1.5-0.1-2.4-0.2-2.7c-0.1-0.3-0.5-0.5-1.1-0.5c-0.6,0-1,0.2-1.2,0.6
			c-0.2,0.4-0.2,1.4-0.2,3v14.6h-8.8v-21.7H469.9z"/>
		<path class="st0" d="M500.6,128.2v3.4h2.4v3.4h-2.4v11.6c0,1.4,0.1,2.2,0.3,2.4c0.2,0.2,1,0.2,2.5,0.2v3.5h-3.5
			c-2,0-3.4-0.1-4.3-0.2c-0.9-0.1-1.6-0.4-2.3-0.9c-0.7-0.5-1.1-1-1.2-1.5c-0.2-0.6-0.2-1.9-0.2-4.1v-11h-1.9v-3.4h1.9v-3.4H500.6z"
			/>
		<path class="st0" d="M531.9,142.3h-11.4v4.7c0,1,0.1,1.6,0.3,1.9c0.2,0.3,0.5,0.4,1.1,0.4c0.7,0,1.1-0.2,1.3-0.6
			c0.2-0.4,0.3-1.1,0.3-2.2v-2.8h8.3v1.6c0,1.3-0.1,2.4-0.3,3.1c-0.2,0.7-0.7,1.5-1.6,2.3c-0.8,0.8-1.9,1.4-3.1,1.8
			c-1.3,0.4-2.9,0.6-4.8,0.6c-1.9,0-3.5-0.2-4.9-0.6c-1.4-0.4-2.5-1-3.3-1.7c-0.8-0.7-1.3-1.5-1.6-2.3c-0.3-0.8-0.5-2.1-0.5-3.7
			v-6.3c0-1.9,0.3-3.4,1-4.5c0.7-1.1,1.8-1.9,3.3-2.5c1.5-0.6,3.3-0.9,5.3-0.9c2.5,0,4.5,0.4,6.1,1.1c1.6,0.7,2.7,1.6,3.4,2.8
			c0.6,1.2,1,2.8,1,4.9V142.3z M523.1,138.8v-1.6c0-1.1-0.1-1.8-0.2-2.2c-0.2-0.3-0.5-0.5-1-0.5c-0.6,0-1,0.1-1.1,0.4
			c-0.1,0.3-0.2,1-0.2,2.2v1.6H523.1z"/>
	</g>
</g>
</svg>
